# xmcd CD database file
#
# Track frame offsets:
#	150
#	25025
#	42005
#	61075
#	76505
#	93385
#	110920
#	131030
#	156815
#	180000
#	200160
#	219925
#	247490
#	267275
#	289345
#	311780
#	334535
#
# Disc length: 4739 seconds
#
# Revision: 10
# Processed by: cddbd v1.5.2PL0 Copyright (c) Steve Scherf et al.
# Submitted via: CDex 1.70beta2
#
DISCID=ee128111
DTITLE=Various Artist - Smooth Jazz Cafe 4
DYEAR=2002
DGENRE=Jazz
TTITLE0=Chris Botti and Shawn Colvin - All Would Envy
TTITLE1=Kenny Rankin - Round Midnight
TTITLE2=Jimmy Commers and Coolio - Lowdown
TTITLE3=Kayah and Cesaria Evora - Embarcacao
TTITLE4=Mietek Szcześniak and Paulinho Garcia - Spoza nas
TTITLE5=Ella Fitzgerald - Wait Till You See Him [De-Phazz Remix]
TTITLE6=Miles Davis - Human Nature
TTITLE7=Randy Crawford - When I Get Over You
TTITLE8=Will Downing - I Can't Help It
TTITLE9=Norman Brown - Just Chillin'
TTITLE10=Anita Baker - Sweet Love
TTITLE11=Michael Franks - This Must Be Paradise
TTITLE12=Basia and Taro Hakase - So Nice
TTITLE13=Woobie Doobie - Mr Jeff
TTITLE14=Jeff Golub and Sue Ann Carwell - If I Ever Lose This Heaven
TTITLE15=Gare Du Nord - Pablo's Blues
TTITLE16=Richard Bona and Pat Metheny - Reverence
EXTD=YEAR: 2002
EXTT0=
EXTT1=
EXTT2=
EXTT3=
EXTT4=
EXTT5=
EXTT6=
EXTT7=
EXTT8=
EXTT9=
EXTT10=
EXTT11=
EXTT12=
EXTT13=
EXTT14=
EXTT15=
EXTT16=
PLAYORDER=
